<svg width="339" height="136" viewBox="0 0 339 136" fill="none" xmlns="http://www.w3.org/2000/svg">
<path d="M82.0028 82.5411L129 0H97.507L50.3887 82.5107C50.3297 82.5837 50.2975 82.6748 50.2975 82.7687C50.2975 82.8627 50.3297 82.9538 50.3887 83.0268L80.3373 135.787C80.4584 136 80.5796 136 80.8218 136H112.042L81.9725 82.9661C81.9479 82.897 81.9378 82.8236 81.943 82.7504C81.9482 82.6772 81.9686 82.6059 82.0028 82.5411ZM54.1739 55.9179L36.338 24.5893C36.2787 24.484 36.1894 24.3988 36.0815 24.3447C35.9736 24.2906 35.852 24.2701 35.7324 24.2857H6.66197L24.4979 55.9786C24.5374 56.053 24.5482 56.1395 24.5282 56.2214L0 97.1429H29.3127C29.412 97.1555 29.5127 97.1357 29.6 97.0865C29.6872 97.0373 29.7564 96.9613 29.7972 96.8696L54.1739 56.2821C54.2042 56.1626 54.2042 56.0374 54.1739 55.9179Z" fill="url(#paint0_linear_411_11)"/>
<path d="M138.877 86H133.672V49.5898H138.877L160.764 77.8242V49.5898H165.969V86H160.764L138.877 57.7656V86ZM180.061 58.959V86H175.059V58.959H180.061ZM174.805 48.5488H180.314V53.7539H174.805V48.5488ZM210.098 63.9609V86H205.096V63.9609H193.645V86H188.668V58.959H193.645V63.7324C193.678 63.0723 193.831 62.4544 194.102 61.8789C194.372 61.2865 194.728 60.7786 195.168 60.3555C195.625 59.9154 196.15 59.5768 196.742 59.3398C197.335 59.0859 197.969 58.959 198.646 58.959H205.096C205.756 58.959 206.382 59.0859 206.975 59.3398C207.567 59.5768 208.092 59.9154 208.549 60.3555C209.006 60.7786 209.37 61.2865 209.641 61.8789C209.928 62.4544 210.081 63.0723 210.098 63.7324C210.132 63.0723 210.275 62.4544 210.529 61.8789C210.8 61.2865 211.156 60.7786 211.596 60.3555C212.053 59.9154 212.577 59.5768 213.17 59.3398C213.762 59.0859 214.397 58.959 215.074 58.959H221.523C222.217 58.959 222.869 59.0944 223.479 59.3652C224.088 59.6191 224.613 59.9746 225.053 60.4316C225.51 60.8717 225.865 61.3965 226.119 62.0059C226.39 62.6152 226.525 63.2669 226.525 63.9609V86H221.523V63.9609H210.098ZM258.797 80.998C258.797 81.6921 258.661 82.3438 258.391 82.9531C258.137 83.5625 257.781 84.0957 257.324 84.5527C256.884 84.9928 256.359 85.3483 255.75 85.6191C255.141 85.873 254.489 86 253.795 86H239.855C239.178 86 238.535 85.873 237.926 85.6191C237.316 85.3483 236.783 84.9928 236.326 84.5527C235.886 84.0957 235.531 83.5625 235.26 82.9531C235.006 82.3438 234.879 81.6921 234.879 80.998V48.5488H239.855V63.7324C239.889 63.0723 240.042 62.4544 240.312 61.8789C240.583 61.2865 240.939 60.7786 241.379 60.3555C241.836 59.9154 242.361 59.5768 242.953 59.3398C243.546 59.0859 244.18 58.959 244.857 58.959H253.795C254.489 58.959 255.141 59.0944 255.75 59.3652C256.359 59.6191 256.884 59.9746 257.324 60.4316C257.781 60.8717 258.137 61.3965 258.391 62.0059C258.661 62.6152 258.797 63.2669 258.797 63.9609V80.998ZM239.855 63.9609V80.998H253.795V63.9609H239.855ZM267.125 58.959H272.102V80.998H286.041V58.959H291.043V86H286.041V81.4297C285.99 82.056 285.821 82.6484 285.533 83.207C285.245 83.7656 284.873 84.2565 284.416 84.6797C283.976 85.0859 283.468 85.4076 282.893 85.6445C282.317 85.8815 281.708 86 281.064 86H272.102C271.424 86 270.781 85.873 270.172 85.6191C269.562 85.3483 269.029 84.9928 268.572 84.5527C268.132 84.0957 267.777 83.5625 267.506 82.9531C267.252 82.3438 267.125 81.6921 267.125 80.998V58.959ZM315.697 80.998V74.7266H303.84C303.146 74.7266 302.494 74.5996 301.885 74.3457C301.275 74.0749 300.742 73.7194 300.285 73.2793C299.845 72.8223 299.49 72.2891 299.219 71.6797C298.965 71.0703 298.838 70.4186 298.838 69.7246V63.9609C298.838 63.2669 298.965 62.6152 299.219 62.0059C299.49 61.3965 299.845 60.8717 300.285 60.4316C300.742 59.9746 301.275 59.6191 301.885 59.3652C302.494 59.0944 303.146 58.959 303.84 58.959H319.658V63.9609H303.84V69.7246H315.697C316.391 69.7246 317.035 69.86 317.627 70.1309C318.236 70.3848 318.77 70.7402 319.227 71.1973C319.684 71.6374 320.039 72.1621 320.293 72.7715C320.564 73.3809 320.699 74.0326 320.699 74.7266V80.998C320.699 81.6921 320.564 82.3438 320.293 82.9531C320.039 83.5625 319.684 84.0957 319.227 84.5527C318.77 84.9928 318.236 85.3483 317.627 85.6191C317.035 85.873 316.391 86 315.697 86H298.838V80.998H315.697Z" fill="url(#paint1_linear_411_11)"/>
<defs>
<linearGradient id="paint0_linear_411_11" x1="65" y1="42" x2="129" y2="189" gradientUnits="userSpaceOnUse">
<stop stop-color="#F39304"/>
<stop offset="1" stop-opacity="0"/>
</linearGradient>
<linearGradient id="paint1_linear_411_11" x1="188.5" y1="32" x2="444.5" y2="249.5" gradientUnits="userSpaceOnUse">
<stop stop-color="#F69400"/>
<stop offset="1" stop-color="#674B4B" stop-opacity="0"/>
</linearGradient>
</defs>
</svg>
